<svg id="Layer_1" xmlns="http://www.w3.org/2000/svg" viewBox="0 0 1366 243" enable-background="new 0 0 1366 243"><style>.st0{filter:url(#Adobe_OpacityMaskFilter)}.st1{fill:#fff}.st2{mask:url(#mask-2);fill:#a2cfef}.st3{filter:url(#Adobe_OpacityMaskFilter_1_)}.st4{mask:url(#mask-4)}.st4,.st5{fill:#a2cfef}.st6{filter:url(#Adobe_OpacityMaskFilter_2_)}.st7{mask:url(#mask-6);fill:#a2cfef}</style><title>people</title><g id="Exploration"><g id="contributors-copy" transform="translate(0 -4288)"><g id="people" transform="translate(-75 4288)"><g id="Group-3" transform="translate(0 134)"><defs><filter id="Adobe_OpacityMaskFilter" filterUnits="userSpaceOnUse" x="-169.7" y=".9" width="1853.7" height="412"><feColorMatrix values="1 0 0 0 0 0 1 0 0 0 0 0 1 0 0 0 0 0 1 0"/></filter></defs><mask maskUnits="userSpaceOnUse" x="-169.7" y=".9" width="1853.7" height="412" id="mask-2"><g class="st0"><path id="path-1" class="st1" d="M.7.9V109h1515V.9z"/></g></mask><path id="Fill-1" class="st2" d="M1684 206.9c0 113.8-415 206-926.8 206-511.9 0-926.8-92.2-926.8-206S245.4.9 757.2.9c511.8 0 926.8 92.2 926.8 206"/></g><g id="Group-8" transform="translate(0 126)"><defs><filter id="Adobe_OpacityMaskFilter_1_" filterUnits="userSpaceOnUse" x="-17.3" y=".1" width="124.7" height="116.1"><feColorMatrix values="1 0 0 0 0 0 1 0 0 0 0 0 1 0 0 0 0 0 1 0"/></filter></defs><mask maskUnits="userSpaceOnUse" x="-17.3" y=".1" width="124.7" height="116.1" id="mask-4"><g class="st3"><path id="path-3" class="st1" d="M6.7 116.2V.1h100.7v116.1z"/></g></mask><path id="Fill-6" class="st4" d="M22.3 9.1C32.4 6 42.6 3 52.7.1c18.4 3.7 36.6 7.6 54.7 11.8-.8 2.8-1.5 5.5-2.3 8.3-16.5-3.7-33-7.3-49.7-10.7L67.1 50c5.6 19.2 11.2 38.5 16.7 57.7-3.7 1.1-7.4 2.2-11.1 3.2-5.7-19.2-11.3-38.4-17-57.6-2.3.7-4.7 1.4-7 2.1L65.9 113l-11.1 3.3C49 97 43.2 77.9 37.4 58.7c-4.1-13.4-8.2-26.9-12.2-40.3C13 30.3 1 42.4-10.8 54.5c-2.1-1.9-4.3-3.8-6.5-5.7 13-13.4 26.2-26.6 39.6-39.7"/></g><path id="Fill-9" class="st5" d="M140.3 86.8c1.4 5.9 7.6 9.4 13.8 7.8 6.2-1.5 10-7.5 8.7-13.4-1.4-5.9-7.5-9.4-13.8-7.9-6.3 1.6-10.1 7.7-8.7 13.5"/><path id="Fill-11" class="st5" d="M140.3 102.5c10.2-2.6 20.5-5.1 30.8-7.5 18.1 4.6 36.1 9.4 54 14.4-.9 2.7-1.8 5.5-2.7 8.2-16.2-4.5-32.6-8.9-49-13.1 3.3 13.6 6.5 27.3 9.8 40.9 4.6 19.5 9.3 38.9 13.9 58.4-3.7.9-7.5 1.8-11.2 2.7-4.7-19.4-9.5-38.9-14.2-58.3-2.4.6-4.7 1.2-7.1 1.7 4.8 19.4 9.6 38.9 14.4 58.3-3.7.9-7.5 1.8-11.2 2.8l-14.7-58.2c-3.4-13.6-6.9-27.2-10.3-40.8-12.7 11.3-25.2 22.7-37.5 34.2-2-2-4.1-4-6.2-6 13.5-12.7 27.2-25.3 41.2-37.7"/><path id="Fill-13" class="st5" d="M260.2 60.3c1.2 5.9 7.1 9.7 13.4 8.5 6.2-1.2 10.4-7 9.3-13-1.1-6-7.1-9.8-13.4-8.6-6.3 1.3-10.5 7.1-9.3 13.1"/><path id="Fill-15" class="st5" d="M258.9 75c10.3-2.1 20.7-4.1 31-6 17.8 5.5 35.5 11.2 53.1 17l-3 8.1c-16-5.3-32-10.5-48.2-15.5l7.8 41.5c3.7 19.7 7.4 39.4 11.1 59.2-3.8.7-7.6 1.4-11.3 2.2L288 122.4c-2.4.5-4.8.9-7.2 1.4 3.9 19.7 7.7 39.4 11.6 59.1-3.8.7-7.5 1.5-11.3 2.2-4-19.7-7.9-39.4-11.9-59-2.8-13.8-5.5-27.6-8.3-41.4-13.2 10.7-26.2 21.5-39 32.5-1.9-2.1-3.9-4.2-5.8-6.3 14-12.2 28.3-24.1 42.8-35.9"/><path id="Fill-17" class="st5" d="M381.1 38.7c.9 6 6.7 10.1 12.9 9.2 6.3-.9 10.7-6.5 9.9-12.5-.8-6-6.6-10.1-12.9-9.2-6.4.9-10.8 6.5-9.9 12.5"/><path id="Fill-19" class="st5" d="M379.5 54.5c10.4-1.6 20.8-3.1 31.2-4.5 17.6 6.3 35 12.8 52.2 19.5-1.1 2.6-2.3 5.3-3.4 7.9-15.7-6.1-31.5-12-47.4-17.7 1.9 13.9 3.9 27.8 5.8 41.6 2.8 19.8 5.5 39.6 8.3 59.4-3.8.5-7.6 1.1-11.4 1.6-2.9-19.8-5.7-39.6-8.6-59.4-2.4.3-4.8.7-7.2 1 2.9 19.8 5.8 39.6 8.7 59.3-3.8.6-7.6 1.1-11.4 1.7-3-19.8-6-39.5-9-59.3-2.1-13.9-4.2-27.7-6.3-41.6-13.6 10-27.1 20.2-40.5 30.4-1.8-2.2-3.7-4.4-5.5-6.6 14.7-11.1 29.5-22.3 44.5-33.3"/><path id="Fill-21" class="st5" d="M502.1 24.2c.6 6 6.2 10.4 12.5 9.8 6.3-.6 11-6 10.4-12-.5-6-6.1-10.5-12.5-9.8-6.4.5-11.1 5.9-10.4 12"/><path id="Fill-23" class="st5" d="M499.8 39c10.4-1.1 20.8-2.1 31.2-3 17.1 7.1 34.1 14.5 50.9 21.9-1.3 2.6-2.5 5.1-3.8 7.7-15.3-6.8-30.7-13.5-46.3-20 1.3 13.9 2.5 27.9 3.8 41.8 1.8 19.9 3.6 39.8 5.4 59.6-3.8.3-7.6.7-11.4 1.1-1.9-19.9-3.8-39.7-5.7-59.6-2.4.2-4.8.5-7.2.7 1.9 19.9 3.9 39.7 5.8 59.6-3.8.4-7.6.8-11.4 1.1-2-19.9-4.1-39.7-6.1-59.6-1.4-13.9-2.9-27.8-4.3-41.8-14 9.4-27.9 18.8-41.6 28.4-1.7-2.3-3.5-4.6-5.2-6.8 15.2-10.4 30.5-20.8 45.9-31.1"/><path id="Fill-25" class="st5" d="M624 14.6c.3 6.1 5.7 10.7 12 10.4 6.3-.3 11.2-5.5 11-11.5-.3-6.1-5.6-10.8-12-10.4-6.4.2-11.3 5.4-11 11.5"/><path id="Fill-27" class="st5" d="M620.5 29.5c10.5-.6 21-1.1 31.5-1.5 16.8 8 33.5 16.1 50 24.4l-4.2 7.5c-15-7.5-30.2-14.9-45.5-22.2l1.8 42c.8 20 1.7 39.9 2.5 59.9-3.8.2-7.7.3-11.5.5-.9-20-1.9-39.9-2.8-59.9-2.4.1-4.8.2-7.3.3 1 20 2 39.9 3 59.9-3.8.2-7.7.4-11.5.6-1.1-19.9-2.2-39.9-3.3-59.8-.8-14-1.5-28-2.3-41.9-14.5 8.7-28.9 17.5-43.1 26.4-1.6-2.4-3.2-4.7-4.9-7.1 15.7-9.9 31.6-19.6 47.6-29.1"/><path id="Fill-29" class="st5" d="M746 11c0 6.1 5.2 11 11.5 11S769 17.1 769 11s-5.1-11-11.5-11S746 5 746 11"/><path id="Fill-31" class="st5" d="M741.7 26.1c10.5-.1 21-.1 31.5 0 16.4 8.8 32.7 17.7 48.8 26.8-1.5 2.4-3 4.9-4.5 7.3-14.6-8.2-29.4-16.4-44.3-24.4-.1 14-.2 28.1-.2 42.1-.1 20-.2 40.1-.4 60.1h-11.5c0-20 0-40.1.1-60.1h-7.3c0 20 .1 40.1.1 60.1h-11.5c-.1-20-.3-40.1-.4-60.1l-.3-42.1c-14.9 8-29.7 16.1-44.3 24.4-1.5-2.4-3-4.9-4.5-7.3 16.1-9.1 32.3-18.1 48.7-26.8"/><path id="Fill-33" class="st5" d="M868 13.5c-.3 6.1 4.7 11.2 11 11.5 6.3.3 11.7-4.3 12-10.4.3-6.1-4.6-11.3-11-11.6-6.4-.3-11.7 4.4-12 10.5"/><path id="Fill-35" class="st5" d="M864 28c10.5.4 21 .9 31.5 1.5 16 9.5 31.8 19.2 47.5 29-1.6 2.4-3.2 4.7-4.9 7.1-14.2-8.9-28.6-17.7-43.2-26.4-.8 14-1.5 28-2.3 42-1.1 20-2.2 39.9-3.2 59.9-3.8-.2-7.7-.4-11.5-.6 1-20 2-39.9 3-59.9-2.4-.1-4.8-.2-7.3-.3-.9 20-1.9 39.9-2.8 59.9-3.8-.2-7.7-.3-11.5-.5.8-20 1.7-39.9 2.5-59.9l1.7-42C848.2 45.1 833.1 52.5 818 60l-4.2-7.5C830.5 44.1 847.2 36 864 28"/><path id="Fill-37" class="st5" d="M990 20.9c-.5 6 4.1 11.4 10.4 12 6.3.6 11.9-3.8 12.5-9.8.6-6-4.1-11.5-10.4-12.1-6.3-.6-11.9 3.9-12.5 9.9"/><path id="Fill-39" class="st5" d="M983.9 36c10.4.9 20.8 1.9 31.2 3 15.5 10.3 30.7 20.7 45.8 31.2-1.7 2.3-3.5 4.6-5.2 6.8-13.7-9.6-27.6-19-41.7-28.4l-4.3 41.8c-2 19.9-4.1 39.7-6.1 59.6-3.8-.4-7.6-.8-11.4-1.1 1.9-19.9 3.9-39.7 5.8-59.6-2.4-.2-4.8-.5-7.2-.7-1.9 19.9-3.8 39.8-5.6 59.6-3.8-.4-7.6-.7-11.4-1 1.8-19.9 3.6-39.8 5.3-59.7 1.2-13.9 2.5-27.9 3.7-41.8-15.6 6.5-31 13.2-46.3 20-1.3-2.6-2.5-5.1-3.8-7.7 17.1-7.5 34.1-14.8 51.2-22"/><path id="Fill-41" class="st5" d="M1112.1 35.3c-.8 6 3.6 11.6 9.9 12.5 6.3.9 12-3.2 12.9-9.2.9-6-3.5-11.6-9.9-12.6-6.3-.8-12.1 3.3-12.9 9.3"/><path id="Fill-43" class="st5" d="M1106.2 50c10.4 1.4 20.8 2.9 31.2 4.5 15 11 29.9 22.2 44.6 33.4-1.8 2.2-3.7 4.4-5.5 6.6-13.3-10.2-26.8-20.4-40.5-30.4l-6.3 41.6c-3 19.8-6 39.5-9 59.3-3.8-.6-7.6-1.1-11.4-1.7l8.7-59.4c-2.4-.3-4.8-.7-7.2-1-2.8 19.8-5.7 39.6-8.5 59.4-3.8-.5-7.6-1.1-11.4-1.6 2.8-19.8 5.5-39.6 8.3-59.4 1.9-13.9 3.9-27.8 5.8-41.7-15.9 5.8-31.8 11.7-47.4 17.8-1.1-2.6-2.3-5.3-3.4-7.9 17-6.7 34.4-13.2 52-19.5"/><path id="Fill-45" class="st5" d="M1233.2 54.8c-1.1 6 3 11.7 9.3 13 6.2 1.2 12.2-2.6 13.4-8.5 1.2-5.9-3-11.8-9.3-13s-12.3 2.5-13.4 8.5"/><path id="Fill-47" class="st5" d="M1226.1 69c10.3 1.9 20.7 3.9 31 6 14.5 11.8 28.8 23.7 42.9 35.7-2 2.1-3.9 4.2-5.8 6.3-12.8-10.9-25.8-21.7-39-32.5-2.8 13.8-5.5 27.6-8.3 41.4-3.9 19.7-7.9 39.4-11.8 59-3.8-.8-7.5-1.5-11.3-2.2 3.9-19.7 7.7-39.4 11.6-59.1-2.4-.5-4.8-.9-7.2-1.4l-11.4 59.1c-3.8-.7-7.6-1.4-11.3-2.2 3.7-19.7 7.4-39.4 11.1-59.2 2.6-13.8 5.2-27.7 7.8-41.5-16.2 5-32.3 10.2-48.2 15.5l-3-8.1c17.3-5.6 35-11.3 52.9-16.8"/><path id="Fill-49" class="st5" d="M1353.3 81.2c-1.4 5.9 2.5 11.9 8.7 13.4 6.2 1.5 12.3-2 13.8-7.8 1.4-5.9-2.4-11.9-8.6-13.5-6.4-1.5-12.5 2.1-13.9 7.9"/><path id="Fill-51" class="st5" d="M1346 95c10.3 2.4 20.5 4.9 30.8 7.5 14 12.4 27.7 25 41.3 37.6-2.1 2-4.1 4-6.2 6-12.3-11.5-24.8-22.9-37.5-34.2-3.4 13.6-6.9 27.2-10.3 40.8l-14.7 58.2c-3.7-.9-7.5-1.9-11.2-2.8l14.4-58.3c-2.4-.6-4.7-1.2-7.1-1.7-4.7 19.4-9.5 38.9-14.2 58.3-3.7-.9-7.5-1.8-11.2-2.7 4.6-19.5 9.3-38.9 13.9-58.4l9.8-40.9c-16.5 4.2-32.8 8.6-49 13.1-.9-2.7-1.8-5.5-2.7-8.2 17.7-4.9 35.7-9.7 53.9-14.3"/><g id="Group-57" transform="translate(1403 126)"><defs><filter id="Adobe_OpacityMaskFilter_2_" filterUnits="userSpaceOnUse" x="6.9" y=".1" width="124.5" height="116.1"><feColorMatrix values="1 0 0 0 0 0 1 0 0 0 0 0 1 0 0 0 0 0 1 0"/></filter></defs><mask maskUnits="userSpaceOnUse" x="6.9" y=".1" width="124.5" height="116.1" id="mask-6"><g class="st6"><path id="path-5" class="st1" d="M118.7.1v116.1H6.9V.1z"/></g></mask><path id="Fill-55" class="st7" d="M61.6.1C71.7 3 81.9 6 92 9.1c13.4 13.1 26.5 26.3 39.5 39.7-2.2 1.9-4.3 3.8-6.4 5.7-11.8-12.1-23.8-24.1-35.9-36.1-4.1 13.4-8.2 26.9-12.3 40.3-5.8 19.2-11.6 38.3-17.4 57.5l-11.1-3.3 17.2-57.6c-2.3-.7-4.7-1.4-7-2.1-5.7 19.2-11.3 38.4-17 57.6-3.7-1.1-7.4-2.2-11.1-3.2C36 88.4 41.6 69.1 47.2 49.9L58.9 9.4c-16.7 3.4-33.2 7-49.7 10.7-.7-2.8-1.5-5.5-2.3-8.3C25 7.7 43.2 3.8 61.6.1"/></g></g></g></g></svg>